<svg clip-rule="evenodd" fill-rule="evenodd" height="152" stroke-linejoin="round" stroke-miterlimit="2" width="306" xmlns="http://www.w3.org/2000/svg"><g fill-rule="nonzero"><path d="m124.07 103.84 11.451-71.51 19.345-.039-11.433 71.549zm-124.037-103.475h19.346v59.553c1.101.115 2.208.162 3.315.139 11.053 0 19.346-7.308 19.346-19.847 0-2.205 0-4.135-.278-7.858h18.514c.297 2.701.435 5.417.413 8.135 0 11.579-4.144 23.573-15.196 30.327l19.341 32.948h-21.697l-15.336-27.571c-1.382.138-2.901.138-4.421.138-1.244 0-2.625 0-4.009-.138v27.571h-19.346zm225.444 31.83v71.563h-19.346v-54.985h-22.1v54.984h-19.34v-71.562zm15.755-31.941h19.346v59.618c1.101.114 2.208.159 3.315.137 11.052 0 19.345-7.318 19.345-19.874 0-2.206 0-4.139-.276-7.865h18.505c.298 2.703.435 5.422.413 8.141 0 11.593-4.144 23.6-15.196 30.361l19.341 32.984h-21.689l-15.336-27.601c-1.382.138-2.901.138-4.421.138-1.244 0-2.625 0-4.009-.138v27.601h-19.346zm-163.776.111h19.345v86.562h14.916v16.816h-34.261zm58.253 11.244c0-.047-.001-.094-.001-.141 0-6.291 5.177-11.468 11.468-11.468 6.292 0 11.468 5.177 11.468 11.468s-5.176 11.468-11.468 11.468l-.145.001c-6.211 0-11.322-5.111-11.322-11.322z"/><path d="m161.055 139.179c0 7.11 3.96 12.015 10.17 12.015 5.265 0 7.2-3.915 7.2-3.915h.09s-.09.63-.09 1.485v1.89h5.4v-31.95h-5.715v10.08c0 .72.045 1.305.045 1.305h-.09s-1.575-2.925-6.615-2.925c-6.075 0-10.395 4.725-10.395 12.015zm-145.395 0c0 6.525 4.725 12.015 12.33 12.015 5.715 0 9.225-3.285 9.225-3.285l-2.205-4.095s-2.925 2.52-6.615 2.52c-3.42 0-6.525-2.07-6.885-6.075h15.84s.135-1.53.135-2.205c0-6.075-3.555-10.89-10.17-10.89-6.84 0-11.655 4.95-11.655 12.015zm24.615 8.64s3.195 3.375 8.91 3.375c5.445 0 8.775-3.06 8.775-6.885 0-7.38-11.16-6.975-11.16-10.215 0-1.44 1.44-2.07 2.925-2.07 3.51 0 5.625 1.98 5.625 1.98l2.115-4.23s-2.52-2.61-7.695-2.61c-4.95 0-8.775 2.475-8.775 6.75 0 7.38 11.16 6.93 11.16 10.35 0 1.35-1.395 2.07-3.015 2.07-3.735 0-6.255-2.52-6.255-2.52zm148.23-8.64c0 6.525 4.725 12.015 12.33 12.015 5.715 0 9.225-3.285 9.225-3.285l-2.205-4.095s-2.925 2.52-6.615 2.52c-3.42 0-6.525-2.07-6.885-6.075h15.84s.135-1.53.135-2.205c0-6.075-3.555-10.89-10.17-10.89-6.84 0-11.655 4.95-11.655 12.015zm24.615 8.64s3.195 3.375 8.91 3.375c5.445 0 8.775-3.06 8.775-6.885 0-7.38-11.16-6.975-11.16-10.215 0-1.44 1.44-2.07 2.925-2.07 3.51 0 5.625 1.98 5.625 1.98l2.115-4.23s-2.52-2.61-7.695-2.61c-4.95 0-8.775 2.475-8.775 6.75 0 7.38 11.16 6.93 11.16 10.35 0 1.35-1.395 2.07-3.015 2.07-3.735 0-6.255-2.52-6.255-2.52zm66.33-5.355c0 6.255 3.06 8.73 7.965 8.73 3.915 0 6.84-2.385 7.965-4.77h.09s-.09.72-.09 1.62v2.61h5.49v-22.95h-5.715v10.53c0 4.095-2.295 7.74-6.435 7.74-2.835 0-3.555-1.89-3.555-4.68v-13.59h-5.715zm-45.99 5.355s3.195 3.375 8.91 3.375c5.445 0 8.775-3.06 8.775-6.885 0-7.38-11.16-6.975-11.16-10.215 0-1.44 1.44-2.07 2.925-2.07 3.51 0 5.625 1.98 5.625 1.98l2.115-4.23s-2.52-2.61-7.695-2.61c-4.95 0-8.775 2.475-8.775 6.75 0 7.38 11.16 6.93 11.16 10.35 0 1.35-1.395 2.07-3.015 2.07-3.735 0-6.255-2.52-6.255-2.52zm-120.51-3.78c0 4.59 3.69 7.155 7.785 7.155 5.22 0 7.02-4.05 6.975-4.05h.09s-.09.72-.09 1.62v1.89h5.265v-14.355c0-5.805-3.51-9.135-9.54-9.135-5.445 0-9 2.835-9 2.835l2.16 4.095s3.015-2.205 6.3-2.205c2.52 0 4.41 1.035 4.41 4.05v.315h-.765c-3.735 0-13.59.495-13.59 7.785zm140.85 0c0 4.59 3.69 7.155 7.785 7.155 5.22 0 7.02-4.05 6.975-4.05h.09s-.09.72-.09 1.62v1.89h5.265v-14.355c0-5.805-3.51-9.135-9.54-9.135-5.445 0-9 2.835-9 2.835l2.16 4.095s3.015-2.205 6.3-2.205c2.52 0 4.41 1.035 4.41 4.05v.315h-.765c-3.735 0-13.59.495-13.59 7.785zm-115.2-.54c0 6.57 3.915 7.38 7.065 7.38.945 0 1.8-.135 1.8-.135v-4.995s-.405.045-.855.045c-1.485 0-2.34-.63-2.34-3.15v-23.94h-5.67zm-75.06-1.26c0 7.695 6.345 8.64 9.54 8.64 1.08 0 1.755-.135 1.755-.135v-4.995s-.405.09-1.035.09c-1.575 0-4.545-.54-4.545-4.32v-8.91h5.22v-4.545h-5.22v-6.615h-5.58v6.615h-3.105v4.545h2.97zm-60.705 8.415h5.715v-18.045h4.905v-4.545h-4.905v-.9c0-3.33 2.79-3.735 4.41-3.735.675 0 1.17.09 1.17.09v-4.86s-.765-.135-1.935-.135c-3.195 0-9.36.99-9.36 8.505v1.035h-2.835v4.545h2.835zm76.68 0h5.715v-22.95h-5.715zm17.19 0h6.75l8.235-22.95h-6.03l-4.77 14.22c-.45 1.35-.765 3.465-.81 3.465h-.09c-.045 0-.36-2.115-.81-3.465l-4.77-14.22h-6.03zm162.855-6.885c0-3.195 4.725-3.6 7.65-3.6h.99v.54c0 2.79-2.16 6.03-5.175 6.03-2.34 0-3.465-1.44-3.465-2.97zm-140.85 0c0-3.195 4.725-3.6 7.65-3.6h.99v.54c0 2.79-2.16 6.03-5.175 6.03-2.34 0-3.465-1.44-3.465-2.97zm48.105-4.59c0-4.545 2.61-7.11 5.76-7.11 3.825 0 5.715 3.51 5.715 7.065 0 5.085-2.79 7.245-5.76 7.245-3.375 0-5.715-2.835-5.715-7.2zm27.72-2.835c.54-2.97 2.565-4.77 5.49-4.77 2.52 0 4.455 1.665 4.545 4.77zm-172.845 0c.54-2.97 2.565-4.77 5.49-4.77 2.52 0 4.455 1.665 4.545 4.77zm57.825-12.555h5.67v-5.085h-5.67z"/></g></svg>