<svg enable-background="new 0 0 436.25 294.03" height="294.03" viewBox="0 0 436.25 294.03" width="436.25" xmlns="http://www.w3.org/2000/svg" xmlns:xlink="http://www.w3.org/1999/xlink"><clipPath id="a"><path d="m0 .03h436.213v294h-436.213z"/></clipPath><path clip-path="url(#a)" d="m41.231 129.896-41.231-128.545h27.425l13.993 46.455 12.873 44.404h1.12l13.06-45.71 13.432-45.149h26.866l-41.045 128.545zm124.914-129.867c-6.32.003-12.455.874-18.403 2.611-5.959 1.744-11.235 4.356-15.829 7.836-4.595 3.484-8.256 7.836-10.988 13.06-2.731 5.224-4.095 11.258-4.095 18.097v47.202c0 6.967 1.303 13.06 3.909 18.284s6.145 9.64 10.614 13.246c4.469 3.609 9.713 6.314 15.736 8.116 6.013 1.799 12.363 2.701 19.056 2.704v-23.515c-2.941-.011-5.824-.405-8.643-1.204-2.863-.808-5.411-2.146-7.65-4.011-2.238-1.866-4.043-4.291-5.41-7.277-1.37-2.985-2.052-6.591-2.052-10.821v-37.5c0-4.227.682-7.804 2.052-10.728 1.367-2.921 3.172-5.317 5.41-7.182 2.239-1.866 4.787-3.233 7.65-4.105 2.819-.856 5.702-1.285 8.643-1.297zm134.695 29.13c-3.049-3.25-7.495-4.877-13.34-4.877h-25.933v34.329h25.933c5.97 0 10.448-1.595 13.434-4.784 2.984-3.189 4.478-7.285 4.478-12.287-.001-5.002-1.526-9.127-4.572-12.381m24.067 32.717c-1.804 3.172-4.011 6.095-6.623 8.769-2.612 2.676-5.597 4.883-8.955 6.623l23.134 52.612h-27.611c-.498-1.367-1.277-3.326-2.332-5.877-1.059-2.548-2.239-5.378-3.545-8.489-1.307-3.107-2.677-6.372-4.104-9.794-1.432-3.42-2.799-6.685-4.104-9.795-1.307-3.108-2.489-5.938-3.546-8.489-1.058-2.548-1.897-4.507-2.518-5.877h-23.135v48.321h-25.561v-128.546h57.277c6.465 0 12.033 1.213 16.698 3.638 4.664 2.426 8.518 5.568 11.566 9.422 3.046 3.857 5.285 8.18 6.717 12.967 1.429 4.789 2.146 9.486 2.146 14.086 0 3.358-.467 6.809-1.399 10.354s-2.303 6.903-4.105 10.075m-113.294 208.087c2.606-5.223 3.912-11.316 3.912-18.283v-46.457c0-6.838-1.368-12.902-4.099-18.189-2.732-5.285-6.393-9.701-10.987-13.246s-9.868-6.25-15.827-8.115c-5.954-1.865-12.095-2.797-18.423-2.799v23.514c.028 0 .054-.006.081-.006 2.986 0 5.877.436 8.676 1.305 2.798.871 5.317 2.24 7.556 4.105s4.04 4.262 5.41 7.182c1.368 2.924 2.053 6.502 2.053 10.729v37.5c0 4.23-.685 7.836-2.053 10.82-1.37 2.986-3.171 5.412-5.41 7.277s-4.758 3.203-7.556 4.012c-2.799.811-5.69 1.211-8.676 1.211-.027 0-.053-.004-.081-.004v23.512c6.698-.002 13.055-.904 19.074-2.703 6.022-1.803 11.267-4.508 15.735-8.117 4.469-3.607 8.008-8.025 10.615-13.248m89.227-77.959c-3.049-3.25-7.495-4.877-13.34-4.877h-25.933v34.328h25.933c5.97 0 10.448-1.596 13.434-4.783 2.984-3.189 4.478-7.285 4.478-12.287-.001-5.004-1.526-9.129-4.572-12.381m24.067 32.717c-1.804 3.17-4.011 6.094-6.623 8.768-2.612 2.676-5.597 4.883-8.955 6.623l23.134 52.613h-27.611c-.499-1.367-1.277-3.326-2.332-5.877-1.059-2.549-2.239-5.379-3.545-8.49-1.307-3.105-2.677-6.371-4.104-9.795-1.432-3.418-2.799-6.684-4.104-9.795-1.307-3.105-2.489-5.938-3.546-8.486-1.058-2.549-1.897-4.508-2.518-5.879h-23.135v48.322h-25.561v-128.547h57.277c6.465 0 12.033 1.213 16.698 3.639 4.664 2.426 8.518 5.568 11.566 9.422 3.046 3.857 5.285 8.18 6.717 12.967 1.429 4.789 2.146 9.484 2.146 14.086 0 3.357-.466 6.809-1.399 10.354-.933 3.543-2.303 6.903-4.105 10.075m111.306-37.594v-22.949h-93.658v22.949h34.144v105.598h25.559v-105.598z" fill="#000"/></svg>